<svg width="154" height="43" viewBox="0 0 154 43" fill="none" xmlns="http://www.w3.org/2000/svg">
<path d="M112.875 4.25C111.685 4.25 110.75 3.315 110.75 2.125C110.75 0.935001 111.685 0 112.875 0C114.065 0 115 0.935001 115 2.125C115 3.315 114.065 4.25 112.875 4.25ZM134.125 4.25C132.935 4.25 132 3.315 132 2.125C132 0.935001 132.935 0 134.125 0C135.315 0 136.25 0.935001 136.25 2.125C136.25 3.315 135.315 4.25 134.125 4.25ZM129.875 4.25C128.685 4.25 127.75 3.315 127.75 2.125C127.75 0.935001 128.685 0 129.875 0C131.065 0 132 0.935001 132 2.125C132 3.315 131.065 4.25 129.875 4.25ZM121.375 4.25C120.185 4.25 119.25 3.315 119.25 2.125C119.25 0.935001 120.185 0 121.375 0C122.565 0 123.5 0.935001 123.5 2.125C123.5 3.315 122.565 4.25 121.375 4.25ZM125.625 4.25C124.435 4.25 123.5 3.315 123.5 2.125C123.5 0.935001 124.435 0 125.625 0C126.815 0 127.75 0.935001 127.75 2.125C127.75 3.315 126.815 4.25 125.625 4.25ZM117.125 4.25C115.935 4.25 115 3.315 115 2.125C115 0.935001 115.935 0 117.125 0C118.315 0 119.25 0.935001 119.25 2.125C119.25 3.315 118.315 4.25 117.125 4.25ZM138.375 4.25C137.185 4.25 136.25 3.315 136.25 2.125C136.25 0.935001 137.185 0 138.375 0C139.565 0 140.5 0.935001 140.5 2.125C140.5 3.315 139.565 4.25 138.375 4.25ZM117.125 8.5C115.935 8.5 115 7.565 115 6.375C115 5.185 115.935 4.25 117.125 4.25C118.315 4.25 119.25 5.185 119.25 6.375C119.25 7.565 118.315 8.5 117.125 8.5ZM121.375 8.5C120.185 8.5 119.25 7.565 119.25 6.375C119.25 5.185 120.185 4.25 121.375 4.25C122.565 4.25 123.5 5.185 123.5 6.375C123.5 7.565 122.565 8.5 121.375 8.5ZM129.875 8.5C128.685 8.5 127.75 7.565 127.75 6.375C127.75 5.185 128.685 4.25 129.875 4.25C131.065 4.25 132 5.185 132 6.375C132 7.565 131.065 8.5 129.875 8.5ZM104.375 8.5C103.185 8.5 102.25 7.565 102.25 6.375C102.25 5.185 103.185 4.25 104.375 4.25C105.565 4.25 106.5 5.185 106.5 6.375C106.5 7.565 105.565 8.5 104.375 8.5ZM108.625 8.5C107.435 8.5 106.5 7.565 106.5 6.375C106.5 5.185 107.435 4.25 108.625 4.25C109.815 4.25 110.75 5.185 110.75 6.375C110.75 7.565 109.815 8.5 108.625 8.5ZM134.125 8.5C132.935 8.5 132 7.565 132 6.375C132 5.185 132.935 4.25 134.125 4.25C135.315 4.25 136.25 5.185 136.25 6.375C136.25 7.565 135.315 8.5 134.125 8.5ZM112.875 8.5C111.685 8.5 110.75 7.565 110.75 6.375C110.75 5.185 111.685 4.25 112.875 4.25C114.065 4.25 115 5.185 115 6.375C115 7.565 114.065 8.5 112.875 8.5ZM146.875 8.5C145.685 8.5 144.75 7.565 144.75 6.375C144.75 5.185 145.685 4.25 146.875 4.25C148.065 4.25 149 5.185 149 6.375C149 7.565 148.065 8.5 146.875 8.5ZM142.625 8.5C141.435 8.5 140.5 7.565 140.5 6.375C140.5 5.185 141.435 4.25 142.625 4.25C143.815 4.25 144.75 5.185 144.75 6.375C144.75 7.565 143.815 8.5 142.625 8.5ZM138.375 8.5C137.185 8.5 136.25 7.565 136.25 6.375C136.25 5.185 137.185 4.25 138.375 4.25C139.565 4.25 140.5 5.185 140.5 6.375C140.5 7.565 139.565 8.5 138.375 8.5ZM125.625 8.5C124.435 8.5 123.5 7.565 123.5 6.375C123.5 5.185 124.435 4.25 125.625 4.25C126.815 4.25 127.75 5.185 127.75 6.375C127.75 7.565 126.815 8.5 125.625 8.5ZM134.125 12.75C132.935 12.75 132 11.815 132 10.625C132 9.435 132.935 8.5 134.125 8.5C135.315 8.5 136.25 9.435 136.25 10.625C136.25 11.815 135.315 12.75 134.125 12.75ZM112.875 12.75C111.685 12.75 110.75 11.815 110.75 10.625C110.75 9.435 111.685 8.5 112.875 8.5C114.065 8.5 115 9.435 115 10.625C115 11.815 114.065 12.75 112.875 12.75ZM104.375 12.75C103.185 12.75 102.25 11.815 102.25 10.625C102.25 9.435 103.185 8.5 104.375 8.5C105.565 8.5 106.5 9.435 106.5 10.625C106.5 11.815 105.565 12.75 104.375 12.75ZM138.375 12.75C137.185 12.75 136.25 11.815 136.25 10.625C136.25 9.435 137.185 8.5 138.375 8.5C139.565 8.5 140.5 9.435 140.5 10.625C140.5 11.815 139.565 12.75 138.375 12.75ZM142.625 12.75C141.435 12.75 140.5 11.815 140.5 10.625C140.5 9.435 141.435 8.5 142.625 8.5C143.815 8.5 144.75 9.435 144.75 10.625C144.75 11.815 143.815 12.75 142.625 12.75ZM146.875 12.75C145.685 12.75 144.75 11.815 144.75 10.625C144.75 9.435 145.685 8.5 146.875 8.5C148.065 8.5 149 9.435 149 10.625C149 11.815 148.065 12.75 146.875 12.75ZM117.125 12.75C115.935 12.75 115 11.815 115 10.625C115 9.435 115.935 8.5 117.125 8.5C118.315 8.5 119.25 9.435 119.25 10.625C119.25 11.815 118.315 12.75 117.125 12.75ZM108.625 12.75C107.435 12.75 106.5 11.815 106.5 10.625C106.5 9.435 107.435 8.5 108.625 8.5C109.815 8.5 110.75 9.435 110.75 10.625C110.75 11.815 109.815 12.75 108.625 12.75ZM104.375 17C103.185 17 102.25 16.065 102.25 14.875C102.25 13.685 103.185 12.75 104.375 12.75C105.565 12.75 106.5 13.685 106.5 14.875C106.5 16.065 105.565 17 104.375 17ZM151.125 17C149.935 17 149 16.065 149 14.875C149 13.685 149.935 12.75 151.125 12.75C152.315 12.75 153.25 13.685 153.25 14.875C153.25 16.065 152.315 17 151.125 17ZM138.375 17C137.185 17 136.25 16.065 136.25 14.875C136.25 13.685 137.185 12.75 138.375 12.75C139.565 12.75 140.5 13.685 140.5 14.875C140.5 16.065 139.565 17 138.375 17ZM100.125 17C98.935 17 98 16.065 98 14.875C98 13.685 98.935 12.75 100.125 12.75C101.315 12.75 102.25 13.685 102.25 14.875C102.25 16.065 101.315 17 100.125 17ZM146.875 17C145.685 17 144.75 16.065 144.75 14.875C144.75 13.685 145.685 12.75 146.875 12.75C148.065 12.75 149 13.685 149 14.875C149 16.065 148.065 17 146.875 17ZM142.625 17C141.435 17 140.5 16.065 140.5 14.875C140.5 13.685 141.435 12.75 142.625 12.75C143.815 12.75 144.75 13.685 144.75 14.875C144.75 16.065 143.815 17 142.625 17ZM112.875 17C111.685 17 110.75 16.065 110.75 14.875C110.75 13.685 111.685 12.75 112.875 12.75C114.065 12.75 115 13.685 115 14.875C115 16.065 114.065 17 112.875 17ZM108.625 17C107.435 17 106.5 16.065 106.5 14.875C106.5 13.685 107.435 12.75 108.625 12.75C109.815 12.75 110.75 13.685 110.75 14.875C110.75 16.065 109.815 17 108.625 17ZM108.625 21.25C107.435 21.25 106.5 20.315 106.5 19.125C106.5 17.935 107.435 17 108.625 17C109.815 17 110.75 17.935 110.75 19.125C110.75 20.315 109.815 21.25 108.625 21.25ZM151.125 21.25C149.935 21.25 149 20.315 149 19.125C149 17.935 149.935 17 151.125 17C152.315 17 153.25 17.935 153.25 19.125C153.25 20.315 152.315 21.25 151.125 21.25ZM138.375 21.25C137.185 21.25 136.25 20.315 136.25 19.125C136.25 17.935 137.185 17 138.375 17C139.565 17 140.5 17.935 140.5 19.125C140.5 20.315 139.565 21.25 138.375 21.25ZM104.375 21.25C103.185 21.25 102.25 20.315 102.25 19.125C102.25 17.935 103.185 17 104.375 17C105.565 17 106.5 17.935 106.5 19.125C106.5 20.315 105.565 21.25 104.375 21.25ZM100.125 21.25C98.935 21.25 98 20.315 98 19.125C98 17.935 98.935 17 100.125 17C101.315 17 102.25 17.935 102.25 19.125C102.25 20.315 101.315 21.25 100.125 21.25ZM112.875 21.25C111.685 21.25 110.75 20.315 110.75 19.125C110.75 17.935 111.685 17 112.875 17C114.065 17 115 17.935 115 19.125C115 20.315 114.065 21.25 112.875 21.25ZM142.625 21.25C141.435 21.25 140.5 20.315 140.5 19.125C140.5 17.935 141.435 17 142.625 17C143.815 17 144.75 17.935 144.75 19.125C144.75 20.315 143.815 21.25 142.625 21.25ZM146.875 21.25C145.685 21.25 144.75 20.315 144.75 19.125C144.75 17.935 145.685 17 146.875 17C148.065 17 149 17.935 149 19.125C149 20.315 148.065 21.25 146.875 21.25ZM112.875 25.5C111.685 25.5 110.75 24.565 110.75 23.375C110.75 22.185 111.685 21.25 112.875 21.25C114.065 21.25 115 22.185 115 23.375C115 24.565 114.065 25.5 112.875 25.5ZM142.625 25.5C141.435 25.5 140.5 24.565 140.5 23.375C140.5 22.185 141.435 21.25 142.625 21.25C143.815 21.25 144.75 22.185 144.75 23.375C144.75 24.565 143.815 25.5 142.625 25.5ZM146.875 25.5C145.685 25.5 144.75 24.565 144.75 23.375C144.75 22.185 145.685 21.25 146.875 21.25C148.065 21.25 149 22.185 149 23.375C149 24.565 148.065 25.5 146.875 25.5ZM108.625 25.5C107.435 25.5 106.5 24.565 106.5 23.375C106.5 22.185 107.435 21.25 108.625 21.25C109.815 21.25 110.75 22.185 110.75 23.375C110.75 24.565 109.815 25.5 108.625 25.5ZM100.125 25.5C98.935 25.5 98 24.565 98 23.375C98 22.185 98.935 21.25 100.125 21.25C101.315 21.25 102.25 22.185 102.25 23.375C102.25 24.565 101.315 25.5 100.125 25.5ZM138.375 25.5C137.185 25.5 136.25 24.565 136.25 23.375C136.25 22.185 137.185 21.25 138.375 21.25C139.565 21.25 140.5 22.185 140.5 23.375C140.5 24.565 139.565 25.5 138.375 25.5ZM104.375 25.5C103.185 25.5 102.25 24.565 102.25 23.375C102.25 22.185 103.185 21.25 104.375 21.25C105.565 21.25 106.5 22.185 106.5 23.375C106.5 24.565 105.565 25.5 104.375 25.5ZM151.125 25.5C149.935 25.5 149 24.565 149 23.375C149 22.185 149.935 21.25 151.125 21.25C152.315 21.25 153.25 22.185 153.25 23.375C153.25 24.565 152.315 25.5 151.125 25.5ZM142.625 29.75C141.435 29.75 140.5 28.815 140.5 27.625C140.5 26.435 141.435 25.5 142.625 25.5C143.815 25.5 144.75 26.435 144.75 27.625C144.75 28.815 143.815 29.75 142.625 29.75ZM112.875 29.75C111.685 29.75 110.75 28.815 110.75 27.625C110.75 26.435 111.685 25.5 112.875 25.5C114.065 25.5 115 26.435 115 27.625C115 28.815 114.065 29.75 112.875 29.75ZM100.125 29.75C98.935 29.75 98 28.815 98 27.625C98 26.435 98.935 25.5 100.125 25.5C101.315 25.5 102.25 26.435 102.25 27.625C102.25 28.815 101.315 29.75 100.125 29.75ZM108.625 29.75C107.435 29.75 106.5 28.815 106.5 27.625C106.5 26.435 107.435 25.5 108.625 25.5C109.815 25.5 110.75 26.435 110.75 27.625C110.75 28.815 109.815 29.75 108.625 29.75ZM104.375 29.75C103.185 29.75 102.25 28.815 102.25 27.625C102.25 26.435 103.185 25.5 104.375 25.5C105.565 25.5 106.5 26.435 106.5 27.625C106.5 28.815 105.565 29.75 104.375 29.75ZM151.125 29.75C149.935 29.75 149 28.815 149 27.625C149 26.435 149.935 25.5 151.125 25.5C152.315 25.5 153.25 26.435 153.25 27.625C153.25 28.815 152.315 29.75 151.125 29.75ZM138.375 29.75C137.185 29.75 136.25 28.815 136.25 27.625C136.25 26.435 137.185 25.5 138.375 25.5C139.565 25.5 140.5 26.435 140.5 27.625C140.5 28.815 139.565 29.75 138.375 29.75ZM146.875 29.75C145.685 29.75 144.75 28.815 144.75 27.625C144.75 26.435 145.685 25.5 146.875 25.5C148.065 25.5 149 26.435 149 27.625C149 28.815 148.065 29.75 146.875 29.75ZM142.625 34C141.435 34 140.5 33.065 140.5 31.875C140.5 30.685 141.435 29.75 142.625 29.75C143.815 29.75 144.75 30.685 144.75 31.875C144.75 33.065 143.815 34 142.625 34ZM112.875 34C111.685 34 110.75 33.065 110.75 31.875C110.75 30.685 111.685 29.75 112.875 29.75C114.065 29.75 115 30.685 115 31.875C115 33.065 114.065 34 112.875 34ZM117.125 34C115.935 34 115 33.065 115 31.875C115 30.685 115.935 29.75 117.125 29.75C118.315 29.75 119.25 30.685 119.25 31.875C119.25 33.065 118.315 34 117.125 34ZM134.125 34C132.935 34 132 33.065 132 31.875C132 30.685 132.935 29.75 134.125 29.75C135.315 29.75 136.25 30.685 136.25 31.875C136.25 33.065 135.315 34 134.125 34ZM108.625 34C107.435 34 106.5 33.065 106.5 31.875C106.5 30.685 107.435 29.75 108.625 29.75C109.815 29.75 110.75 30.685 110.75 31.875C110.75 33.065 109.815 34 108.625 34ZM104.375 34C103.185 34 102.25 33.065 102.25 31.875C102.25 30.685 103.185 29.75 104.375 29.75C105.565 29.75 106.5 30.685 106.5 31.875C106.5 33.065 105.565 34 104.375 34ZM138.375 34C137.185 34 136.25 33.065 136.25 31.875C136.25 30.685 137.185 29.75 138.375 29.75C139.565 29.75 140.5 30.685 140.5 31.875C140.5 33.065 139.565 34 138.375 34ZM146.875 34C145.685 34 144.75 33.065 144.75 31.875C144.75 30.685 145.685 29.75 146.875 29.75C148.065 29.75 149 30.685 149 31.875C149 33.065 148.065 34 146.875 34ZM134.125 38.25C132.935 38.25 132 37.315 132 36.125C132 34.935 132.935 34 134.125 34C135.315 34 136.25 34.935 136.25 36.125C136.25 37.315 135.315 38.25 134.125 38.25ZM142.625 38.25C141.435 38.25 140.5 37.315 140.5 36.125C140.5 34.935 141.435 34 142.625 34C143.815 34 144.75 34.935 144.75 36.125C144.75 37.315 143.815 38.25 142.625 38.25ZM117.125 38.25C115.935 38.25 115 37.315 115 36.125C115 34.935 115.935 34 117.125 34C118.315 34 119.25 34.935 119.25 36.125C119.25 37.315 118.315 38.25 117.125 38.25ZM138.375 38.25C137.185 38.25 136.25 37.315 136.25 36.125C136.25 34.935 137.185 34 138.375 34C139.565 34 140.5 34.935 140.5 36.125C140.5 37.315 139.565 38.25 138.375 38.25ZM146.875 38.25C145.685 38.25 144.75 37.315 144.75 36.125C144.75 34.935 145.685 34 146.875 34C148.065 34 149 34.935 149 36.125C149 37.315 148.065 38.25 146.875 38.25ZM108.625 38.25C107.435 38.25 106.5 37.315 106.5 36.125C106.5 34.935 107.435 34 108.625 34C109.815 34 110.75 34.935 110.75 36.125C110.75 37.315 109.815 38.25 108.625 38.25ZM104.375 38.25C103.185 38.25 102.25 37.315 102.25 36.125C102.25 34.935 103.185 34 104.375 34C105.565 34 106.5 34.935 106.5 36.125C106.5 37.315 105.565 38.25 104.375 38.25ZM112.875 38.25C111.685 38.25 110.75 37.315 110.75 36.125C110.75 34.935 111.685 34 112.875 34C114.065 34 115 34.935 115 36.125C115 37.315 114.065 38.25 112.875 38.25ZM121.375 38.25C120.185 38.25 119.25 37.315 119.25 36.125C119.25 34.935 120.185 34 121.375 34C122.565 34 123.5 34.935 123.5 36.125C123.5 37.315 122.565 38.25 121.375 38.25ZM129.875 38.25C128.685 38.25 127.75 37.315 127.75 36.125C127.75 34.935 128.685 34 129.875 34C131.065 34 132 34.935 132 36.125C132 37.315 131.065 38.25 129.875 38.25ZM125.625 38.25C124.435 38.25 123.5 37.315 123.5 36.125C123.5 34.935 124.435 34 125.625 34C126.815 34 127.75 34.935 127.75 36.125C127.75 37.315 126.815 38.25 125.625 38.25ZM134.125 42.5C132.935 42.5 132 41.565 132 40.375C132 39.185 132.935 38.25 134.125 38.25C135.315 38.25 136.25 39.185 136.25 40.375C136.25 41.565 135.315 42.5 134.125 42.5ZM117.125 42.5C115.935 42.5 115 41.565 115 40.375C115 39.185 115.935 38.25 117.125 38.25C118.315 38.25 119.25 39.185 119.25 40.375C119.25 41.565 118.315 42.5 117.125 42.5ZM121.375 42.5C120.185 42.5 119.25 41.565 119.25 40.375C119.25 39.185 120.185 38.25 121.375 38.25C122.565 38.25 123.5 39.185 123.5 40.375C123.5 41.565 122.565 42.5 121.375 42.5ZM129.875 42.5C128.685 42.5 127.75 41.565 127.75 40.375C127.75 39.185 128.685 38.25 129.875 38.25C131.065 38.25 132 39.185 132 40.375C132 41.565 131.065 42.5 129.875 42.5ZM138.375 42.5C137.185 42.5 136.25 41.565 136.25 40.375C136.25 39.185 137.185 38.25 138.375 38.25C139.565 38.25 140.5 39.185 140.5 40.375C140.5 41.565 139.565 42.5 138.375 42.5ZM112.875 42.5C111.685 42.5 110.75 41.565 110.75 40.375C110.75 39.185 111.685 38.25 112.875 38.25C114.065 38.25 115 39.185 115 40.375C115 41.565 114.065 42.5 112.875 42.5ZM125.625 42.5C124.435 42.5 123.5 41.565 123.5 40.375C123.5 39.185 124.435 38.25 125.625 38.25C126.815 38.25 127.75 39.185 127.75 40.375C127.75 41.565 126.815 42.5 125.625 42.5Z" fill="#67E8AA"/>
<path d="M99.125 4.25C97.935 4.25 97 3.315 97 2.125C97 0.935001 97.935 0 99.125 0C100.315 0 101.25 0.935001 101.25 2.125C101.25 3.315 100.315 4.25 99.125 4.25ZM86.375 4.25C85.185 4.25 84.25 3.315 84.25 2.125C84.25 0.935001 85.185 0 86.375 0C87.565 0 88.5 0.935001 88.5 2.125C88.5 3.315 87.565 4.25 86.375 4.25ZM65.125 4.25C63.935 4.25 63 3.315 63 2.125C63 0.935001 63.935 0 65.125 0C66.315 0 67.25 0.935001 67.25 2.125C67.25 3.315 66.315 4.25 65.125 4.25ZM77.875 4.25C76.685 4.25 75.75 3.315 75.75 2.125C75.75 0.935001 76.685 0 77.875 0C79.065 0 80 0.935001 80 2.125C80 3.315 79.065 4.25 77.875 4.25ZM73.625 4.25C72.435 4.25 71.5 3.315 71.5 2.125C71.5 0.935001 72.435 0 73.625 0C74.815 0 75.75 0.935001 75.75 2.125C75.75 3.315 74.815 4.25 73.625 4.25ZM69.375 4.25C68.185 4.25 67.25 3.315 67.25 2.125C67.25 0.935001 68.185 0 69.375 0C70.565 0 71.5 0.935001 71.5 2.125C71.5 3.315 70.565 4.25 69.375 4.25ZM82.125 4.25C80.935 4.25 80 3.315 80 2.125C80 0.935001 80.935 0 82.125 0C83.315 0 84.25 0.935001 84.25 2.125C84.25 3.315 83.315 4.25 82.125 4.25ZM90.625 4.25C89.435 4.25 88.5 3.315 88.5 2.125C88.5 0.935001 89.435 0 90.625 0C91.815 0 92.75 0.935001 92.75 2.125C92.75 3.315 91.815 4.25 90.625 4.25ZM94.875 4.25C93.685 4.25 92.75 3.315 92.75 2.125C92.75 0.935001 93.685 0 94.875 0C96.065 0 97 0.935001 97 2.125C97 3.315 96.065 4.25 94.875 4.25ZM65.125 8.5C63.935 8.5 63 7.565 63 6.375C63 5.185 63.935 4.25 65.125 4.25C66.315 4.25 67.25 5.185 67.25 6.375C67.25 7.565 66.315 8.5 65.125 8.5ZM103.375 8.5C102.185 8.5 101.25 7.565 101.25 6.375C101.25 5.185 102.185 4.25 103.375 4.25C104.565 4.25 105.5 5.185 105.5 6.375C105.5 7.565 104.565 8.5 103.375 8.5ZM107.625 8.5C106.435 8.5 105.5 7.565 105.5 6.375C105.5 5.185 106.435 4.25 107.625 4.25C108.815 4.25 109.75 5.185 109.75 6.375C109.75 7.565 108.815 8.5 107.625 8.5ZM86.375 8.5C85.185 8.5 84.25 7.565 84.25 6.375C84.25 5.185 85.185 4.25 86.375 4.25C87.565 4.25 88.5 5.185 88.5 6.375C88.5 7.565 87.565 8.5 86.375 8.5ZM77.875 8.5C76.685 8.5 75.75 7.565 75.75 6.375C75.75 5.185 76.685 4.25 77.875 4.25C79.065 4.25 80 5.185 80 6.375C80 7.565 79.065 8.5 77.875 8.5ZM73.625 8.5C72.435 8.5 71.5 7.565 71.5 6.375C71.5 5.185 72.435 4.25 73.625 4.25C74.815 4.25 75.75 5.185 75.75 6.375C75.75 7.565 74.815 8.5 73.625 8.5ZM69.375 8.5C68.185 8.5 67.25 7.565 67.25 6.375C67.25 5.185 68.185 4.25 69.375 4.25C70.565 4.25 71.5 5.185 71.5 6.375C71.5 7.565 70.565 8.5 69.375 8.5ZM99.125 8.5C97.935 8.5 97 7.565 97 6.375C97 5.185 97.935 4.25 99.125 4.25C100.315 4.25 101.25 5.185 101.25 6.375C101.25 7.565 100.315 8.5 99.125 8.5ZM82.125 8.5C80.935 8.5 80 7.565 80 6.375C80 5.185 80.935 4.25 82.125 4.25C83.315 4.25 84.25 5.185 84.25 6.375C84.25 7.565 83.315 8.5 82.125 8.5ZM90.625 8.5C89.435 8.5 88.5 7.565 88.5 6.375C88.5 5.185 89.435 4.25 90.625 4.25C91.815 4.25 92.75 5.185 92.75 6.375C92.75 7.565 91.815 8.5 90.625 8.5ZM94.875 8.5C93.685 8.5 92.75 7.565 92.75 6.375C92.75 5.185 93.685 4.25 94.875 4.25C96.065 4.25 97 5.185 97 6.375C97 7.565 96.065 8.5 94.875 8.5ZM107.625 12.75C106.435 12.75 105.5 11.815 105.5 10.625C105.5 9.435 106.435 8.5 107.625 8.5C108.815 8.5 109.75 9.435 109.75 10.625C109.75 11.815 108.815 12.75 107.625 12.75ZM73.625 12.75C72.435 12.75 71.5 11.815 71.5 10.625C71.5 9.435 72.435 8.5 73.625 8.5C74.815 8.5 75.75 9.435 75.75 10.625C75.75 11.815 74.815 12.75 73.625 12.75ZM69.375 12.75C68.185 12.75 67.25 11.815 67.25 10.625C67.25 9.435 68.185 8.5 69.375 8.5C70.565 8.5 71.5 9.435 71.5 10.625C71.5 11.815 70.565 12.75 69.375 12.75ZM65.125 12.75C63.935 12.75 63 11.815 63 10.625C63 9.435 63.935 8.5 65.125 8.5C66.315 8.5 67.25 9.435 67.25 10.625C67.25 11.815 66.315 12.75 65.125 12.75ZM103.375 12.75C102.185 12.75 101.25 11.815 101.25 10.625C101.25 9.435 102.185 8.5 103.375 8.5C104.565 8.5 105.5 9.435 105.5 10.625C105.5 11.815 104.565 12.75 103.375 12.75ZM77.875 12.75C76.685 12.75 75.75 11.815 75.75 10.625C75.75 9.435 76.685 8.5 77.875 8.5C79.065 8.5 80 9.435 80 10.625C80 11.815 79.065 12.75 77.875 12.75ZM94.875 12.75C93.685 12.75 92.75 11.815 92.75 10.625C92.75 9.435 93.685 8.5 94.875 8.5C96.065 8.5 97 9.435 97 10.625C97 11.815 96.065 12.75 94.875 12.75ZM99.125 12.75C97.935 12.75 97 11.815 97 10.625C97 9.435 97.935 8.5 99.125 8.5C100.315 8.5 101.25 9.435 101.25 10.625C101.25 11.815 100.315 12.75 99.125 12.75ZM107.625 17C106.435 17 105.5 16.065 105.5 14.875C105.5 13.685 106.435 12.75 107.625 12.75C108.815 12.75 109.75 13.685 109.75 14.875C109.75 16.065 108.815 17 107.625 17ZM111.875 17C110.685 17 109.75 16.065 109.75 14.875C109.75 13.685 110.685 12.75 111.875 12.75C113.065 12.75 114 13.685 114 14.875C114 16.065 113.065 17 111.875 17ZM69.375 17C68.185 17 67.25 16.065 67.25 14.875C67.25 13.685 68.185 12.75 69.375 12.75C70.565 12.75 71.5 13.685 71.5 14.875C71.5 16.065 70.565 17 69.375 17ZM73.625 17C72.435 17 71.5 16.065 71.5 14.875C71.5 13.685 72.435 12.75 73.625 12.75C74.815 12.75 75.75 13.685 75.75 14.875C75.75 16.065 74.815 17 73.625 17ZM103.375 17C102.185 17 101.25 16.065 101.25 14.875C101.25 13.685 102.185 12.75 103.375 12.75C104.565 12.75 105.5 13.685 105.5 14.875C105.5 16.065 104.565 17 103.375 17ZM65.125 17C63.935 17 63 16.065 63 14.875C63 13.685 63.935 12.75 65.125 12.75C66.315 12.75 67.25 13.685 67.25 14.875C67.25 16.065 66.315 17 65.125 17ZM77.875 17C76.685 17 75.75 16.065 75.75 14.875C75.75 13.685 76.685 12.75 77.875 12.75C79.065 12.75 80 13.685 80 14.875C80 16.065 79.065 17 77.875 17ZM99.125 17C97.935 17 97 16.065 97 14.875C97 13.685 97.935 12.75 99.125 12.75C100.315 12.75 101.25 13.685 101.25 14.875C101.25 16.065 100.315 17 99.125 17ZM77.875 21.25C76.685 21.25 75.75 20.315 75.75 19.125C75.75 17.935 76.685 17 77.875 17C79.065 17 80 17.935 80 19.125C80 20.315 79.065 21.25 77.875 21.25ZM65.125 21.25C63.935 21.25 63 20.315 63 19.125C63 17.935 63.935 17 65.125 17C66.315 17 67.25 17.935 67.25 19.125C67.25 20.315 66.315 21.25 65.125 21.25ZM99.125 21.25C97.935 21.25 97 20.315 97 19.125C97 17.935 97.935 17 99.125 17C100.315 17 101.25 17.935 101.25 19.125C101.25 20.315 100.315 21.25 99.125 21.25ZM103.375 21.25C102.185 21.25 101.25 20.315 101.25 19.125C101.25 17.935 102.185 17 103.375 17C104.565 17 105.5 17.935 105.5 19.125C105.5 20.315 104.565 21.25 103.375 21.25ZM107.625 21.25C106.435 21.25 105.5 20.315 105.5 19.125C105.5 17.935 106.435 17 107.625 17C108.815 17 109.75 17.935 109.75 19.125C109.75 20.315 108.815 21.25 107.625 21.25ZM111.875 21.25C110.685 21.25 109.75 20.315 109.75 19.125C109.75 17.935 110.685 17 111.875 17C113.065 17 114 17.935 114 19.125C114 20.315 113.065 21.25 111.875 21.25ZM73.625 21.25C72.435 21.25 71.5 20.315 71.5 19.125C71.5 17.935 72.435 17 73.625 17C74.815 17 75.75 17.935 75.75 19.125C75.75 20.315 74.815 21.25 73.625 21.25ZM69.375 21.25C68.185 21.25 67.25 20.315 67.25 19.125C67.25 17.935 68.185 17 69.375 17C70.565 17 71.5 17.935 71.5 19.125C71.5 20.315 70.565 21.25 69.375 21.25ZM107.625 25.5C106.435 25.5 105.5 24.565 105.5 23.375C105.5 22.185 106.435 21.25 107.625 21.25C108.815 21.25 109.75 22.185 109.75 23.375C109.75 24.565 108.815 25.5 107.625 25.5ZM99.125 25.5C97.935 25.5 97 24.565 97 23.375C97 22.185 97.935 21.25 99.125 21.25C100.315 21.25 101.25 22.185 101.25 23.375C101.25 24.565 100.315 25.5 99.125 25.5ZM111.875 25.5C110.685 25.5 109.75 24.565 109.75 23.375C109.75 22.185 110.685 21.25 111.875 21.25C113.065 21.25 114 22.185 114 23.375C114 24.565 113.065 25.5 111.875 25.5ZM65.125 25.5C63.935 25.5 63 24.565 63 23.375C63 22.185 63.935 21.25 65.125 21.25C66.315 21.25 67.25 22.185 67.25 23.375C67.25 24.565 66.315 25.5 65.125 25.5ZM77.875 25.5C76.685 25.5 75.75 24.565 75.75 23.375C75.75 22.185 76.685 21.25 77.875 21.25C79.065 21.25 80 22.185 80 23.375C80 24.565 79.065 25.5 77.875 25.5ZM103.375 25.5C102.185 25.5 101.25 24.565 101.25 23.375C101.25 22.185 102.185 21.25 103.375 21.25C104.565 21.25 105.5 22.185 105.5 23.375C105.5 24.565 104.565 25.5 103.375 25.5ZM69.375 25.5C68.185 25.5 67.25 24.565 67.25 23.375C67.25 22.185 68.185 21.25 69.375 21.25C70.565 21.25 71.5 22.185 71.5 23.375C71.5 24.565 70.565 25.5 69.375 25.5ZM73.625 25.5C72.435 25.5 71.5 24.565 71.5 23.375C71.5 22.185 72.435 21.25 73.625 21.25C74.815 21.25 75.75 22.185 75.75 23.375C75.75 24.565 74.815 25.5 73.625 25.5ZM103.375 29.75C102.185 29.75 101.25 28.815 101.25 27.625C101.25 26.435 102.185 25.5 103.375 25.5C104.565 25.5 105.5 26.435 105.5 27.625C105.5 28.815 104.565 29.75 103.375 29.75ZM107.625 29.75C106.435 29.75 105.5 28.815 105.5 27.625C105.5 26.435 106.435 25.5 107.625 25.5C108.815 25.5 109.75 26.435 109.75 27.625C109.75 28.815 108.815 29.75 107.625 29.75ZM99.125 29.75C97.935 29.75 97 28.815 97 27.625C97 26.435 97.935 25.5 99.125 25.5C100.315 25.5 101.25 26.435 101.25 27.625C101.25 28.815 100.315 29.75 99.125 29.75ZM111.875 29.75C110.685 29.75 109.75 28.815 109.75 27.625C109.75 26.435 110.685 25.5 111.875 25.5C113.065 25.5 114 26.435 114 27.625C114 28.815 113.065 29.75 111.875 29.75ZM77.875 29.75C76.685 29.75 75.75 28.815 75.75 27.625C75.75 26.435 76.685 25.5 77.875 25.5C79.065 25.5 80 26.435 80 27.625C80 28.815 79.065 29.75 77.875 29.75ZM69.375 29.75C68.185 29.75 67.25 28.815 67.25 27.625C67.25 26.435 68.185 25.5 69.375 25.5C70.565 25.5 71.5 26.435 71.5 27.625C71.5 28.815 70.565 29.75 69.375 29.75ZM65.125 29.75C63.935 29.75 63 28.815 63 27.625C63 26.435 63.935 25.5 65.125 25.5C66.315 25.5 67.25 26.435 67.25 27.625C67.25 28.815 66.315 29.75 65.125 29.75ZM73.625 29.75C72.435 29.75 71.5 28.815 71.5 27.625C71.5 26.435 72.435 25.5 73.625 25.5C74.815 25.5 75.75 26.435 75.75 27.625C75.75 28.815 74.815 29.75 73.625 29.75ZM65.125 34C63.935 34 63 33.065 63 31.875C63 30.685 63.935 29.75 65.125 29.75C66.315 29.75 67.25 30.685 67.25 31.875C67.25 33.065 66.315 34 65.125 34ZM73.625 34C72.435 34 71.5 33.065 71.5 31.875C71.5 30.685 72.435 29.75 73.625 29.75C74.815 29.75 75.75 30.685 75.75 31.875C75.75 33.065 74.815 34 73.625 34ZM69.375 34C68.185 34 67.25 33.065 67.25 31.875C67.25 30.685 68.185 29.75 69.375 29.75C70.565 29.75 71.5 30.685 71.5 31.875C71.5 33.065 70.565 34 69.375 34ZM107.625 34C106.435 34 105.5 33.065 105.5 31.875C105.5 30.685 106.435 29.75 107.625 29.75C108.815 29.75 109.75 30.685 109.75 31.875C109.75 33.065 108.815 34 107.625 34ZM77.875 34C76.685 34 75.75 33.065 75.75 31.875C75.75 30.685 76.685 29.75 77.875 29.75C79.065 29.75 80 30.685 80 31.875C80 33.065 79.065 34 77.875 34ZM99.125 34C97.935 34 97 33.065 97 31.875C97 30.685 97.935 29.75 99.125 29.75C100.315 29.75 101.25 30.685 101.25 31.875C101.25 33.065 100.315 34 99.125 34ZM94.875 34C93.685 34 92.75 33.065 92.75 31.875C92.75 30.685 93.685 29.75 94.875 29.75C96.065 29.75 97 30.685 97 31.875C97 33.065 96.065 34 94.875 34ZM103.375 34C102.185 34 101.25 33.065 101.25 31.875C101.25 30.685 102.185 29.75 103.375 29.75C104.565 29.75 105.5 30.685 105.5 31.875C105.5 33.065 104.565 34 103.375 34ZM103.375 38.25C102.185 38.25 101.25 37.315 101.25 36.125C101.25 34.935 102.185 34 103.375 34C104.565 34 105.5 34.935 105.5 36.125C105.5 37.315 104.565 38.25 103.375 38.25ZM107.625 38.25C106.435 38.25 105.5 37.315 105.5 36.125C105.5 34.935 106.435 34 107.625 34C108.815 34 109.75 34.935 109.75 36.125C109.75 37.315 108.815 38.25 107.625 38.25ZM65.125 38.25C63.935 38.25 63 37.315 63 36.125C63 34.935 63.935 34 65.125 34C66.315 34 67.25 34.935 67.25 36.125C67.25 37.315 66.315 38.25 65.125 38.25ZM73.625 38.25C72.435 38.25 71.5 37.315 71.5 36.125C71.5 34.935 72.435 34 73.625 34C74.815 34 75.75 34.935 75.75 36.125C75.75 37.315 74.815 38.25 73.625 38.25ZM69.375 38.25C68.185 38.25 67.25 37.315 67.25 36.125C67.25 34.935 68.185 34 69.375 34C70.565 34 71.5 34.935 71.5 36.125C71.5 37.315 70.565 38.25 69.375 38.25ZM77.875 38.25C76.685 38.25 75.75 37.315 75.75 36.125C75.75 34.935 76.685 34 77.875 34C79.065 34 80 34.935 80 36.125C80 37.315 79.065 38.25 77.875 38.25ZM94.875 38.25C93.685 38.25 92.75 37.315 92.75 36.125C92.75 34.935 93.685 34 94.875 34C96.065 34 97 34.935 97 36.125C97 37.315 96.065 38.25 94.875 38.25ZM99.125 38.25C97.935 38.25 97 37.315 97 36.125C97 34.935 97.935 34 99.125 34C100.315 34 101.25 34.935 101.25 36.125C101.25 37.315 100.315 38.25 99.125 38.25ZM90.625 38.25C89.435 38.25 88.5 37.315 88.5 36.125C88.5 34.935 89.435 34 90.625 34C91.815 34 92.75 34.935 92.75 36.125C92.75 37.315 91.815 38.25 90.625 38.25ZM82.125 38.25C80.935 38.25 80 37.315 80 36.125C80 34.935 80.935 34 82.125 34C83.315 34 84.25 34.935 84.25 36.125C84.25 37.315 83.315 38.25 82.125 38.25ZM86.375 38.25C85.185 38.25 84.25 37.315 84.25 36.125C84.25 34.935 85.185 34 86.375 34C87.565 34 88.5 34.935 88.5 36.125C88.5 37.315 87.565 38.25 86.375 38.25ZM82.125 42.5C80.935 42.5 80 41.565 80 40.375C80 39.185 80.935 38.25 82.125 38.25C83.315 38.25 84.25 39.185 84.25 40.375C84.25 41.565 83.315 42.5 82.125 42.5ZM65.125 42.5C63.935 42.5 63 41.565 63 40.375C63 39.185 63.935 38.25 65.125 38.25C66.315 38.25 67.25 39.185 67.25 40.375C67.25 41.565 66.315 42.5 65.125 42.5ZM69.375 42.5C68.185 42.5 67.25 41.565 67.25 40.375C67.25 39.185 68.185 38.25 69.375 38.25C70.565 38.25 71.5 39.185 71.5 40.375C71.5 41.565 70.565 42.5 69.375 42.5ZM73.625 42.5C72.435 42.5 71.5 41.565 71.5 40.375C71.5 39.185 72.435 38.25 73.625 38.25C74.815 38.25 75.75 39.185 75.75 40.375C75.75 41.565 74.815 42.5 73.625 42.5ZM90.625 42.5C89.435 42.5 88.5 41.565 88.5 40.375C88.5 39.185 89.435 38.25 90.625 38.25C91.815 38.25 92.75 39.185 92.75 40.375C92.75 41.565 91.815 42.5 90.625 42.5ZM77.875 42.5C76.685 42.5 75.75 41.565 75.75 40.375C75.75 39.185 76.685 38.25 77.875 38.25C79.065 38.25 80 39.185 80 40.375C80 41.565 79.065 42.5 77.875 42.5ZM94.875 42.5C93.685 42.5 92.75 41.565 92.75 40.375C92.75 39.185 93.685 38.25 94.875 38.25C96.065 38.25 97 39.185 97 40.375C97 41.565 96.065 42.5 94.875 42.5ZM99.125 42.5C97.935 42.5 97 41.565 97 40.375C97 39.185 97.935 38.25 99.125 38.25C100.315 38.25 101.25 39.185 101.25 40.375C101.25 41.565 100.315 42.5 99.125 42.5ZM86.375 42.5C85.185 42.5 84.25 41.565 84.25 40.375C84.25 39.185 85.185 38.25 86.375 38.25C87.565 38.25 88.5 39.185 88.5 40.375C88.5 41.565 87.565 42.5 86.375 42.5Z" fill="#FFD059"/>
<path d="M40.325 4.25C39.135 4.25 38.2 3.315 38.2 2.125C38.2 0.935001 39.135 0 40.325 0C41.515 0 42.45 0.935001 42.45 2.125C42.45 3.315 41.515 4.25 40.325 4.25ZM36.075 4.25C34.885 4.25 33.95 3.315 33.95 2.125C33.95 0.935001 34.885 0 36.075 0C37.265 0 38.2 0.935001 38.2 2.125C38.2 3.315 37.265 4.25 36.075 4.25ZM31.825 4.25C30.635 4.25 29.7 3.315 29.7 2.125C29.7 0.935001 30.635 0 31.825 0C33.015 0 33.95 0.935001 33.95 2.125C33.95 3.315 33.015 4.25 31.825 4.25ZM27.575 4.25C26.385 4.25 25.45 3.315 25.45 2.125C25.45 0.935001 26.385 0 27.575 0C28.765 0 29.7 0.935001 29.7 2.125C29.7 3.315 28.765 4.25 27.575 4.25ZM74.325 4.25C73.1349 4.25 72.2 3.315 72.2 2.125C72.2 0.935001 73.1349 0 74.325 0C75.5149 0 76.45 0.935001 76.45 2.125C76.45 3.315 75.5149 4.25 74.325 4.25ZM70.075 4.25C68.8849 4.25 67.95 3.315 67.95 2.125C67.95 0.935001 68.8849 0 70.075 0C71.2649 0 72.2 0.935001 72.2 2.125C72.2 3.315 71.2649 4.25 70.075 4.25ZM65.825 4.25C64.635 4.25 63.7 3.315 63.7 2.125C63.7 0.935001 64.635 0 65.825 0C67.0149 0 67.95 0.935001 67.95 2.125C67.95 3.315 67.0149 4.25 65.825 4.25ZM61.575 4.25C60.385 4.25 59.45 3.315 59.45 2.125C59.45 0.935001 60.385 0 61.575 0C62.7649 0 63.7 0.935001 63.7 2.125C63.7 3.315 62.7649 4.25 61.575 4.25ZM27.575 8.5C26.385 8.5 25.45 7.565 25.45 6.375C25.45 5.185 26.385 4.25 27.575 4.25C28.765 4.25 29.7 5.185 29.7 6.375C29.7 7.565 28.765 8.5 27.575 8.5ZM31.825 8.5C30.635 8.5 29.7 7.565 29.7 6.375C29.7 5.185 30.635 4.25 31.825 4.25C33.015 4.25 33.95 5.185 33.95 6.375C33.95 7.565 33.015 8.5 31.825 8.5ZM36.075 8.5C34.885 8.5 33.95 7.565 33.95 6.375C33.95 5.185 34.885 4.25 36.075 4.25C37.265 4.25 38.2 5.185 38.2 6.375C38.2 7.565 37.265 8.5 36.075 8.5ZM40.325 8.5C39.135 8.5 38.2 7.565 38.2 6.375C38.2 5.185 39.135 4.25 40.325 4.25C41.515 4.25 42.45 5.185 42.45 6.375C42.45 7.565 41.515 8.5 40.325 8.5ZM74.325 8.5C73.1349 8.5 72.2 7.565 72.2 6.375C72.2 5.185 73.1349 4.25 74.325 4.25C75.5149 4.25 76.45 5.185 76.45 6.375C76.45 7.565 75.5149 8.5 74.325 8.5ZM70.075 8.5C68.8849 8.5 67.95 7.565 67.95 6.375C67.95 5.185 68.8849 4.25 70.075 4.25C71.2649 4.25 72.2 5.185 72.2 6.375C72.2 7.565 71.2649 8.5 70.075 8.5ZM65.825 8.5C64.635 8.5 63.7 7.565 63.7 6.375C63.7 5.185 64.635 4.25 65.825 4.25C67.0149 4.25 67.95 5.185 67.95 6.375C67.95 7.565 67.0149 8.5 65.825 8.5ZM61.575 8.5C60.385 8.5 59.45 7.565 59.45 6.375C59.45 5.185 60.385 4.25 61.575 4.25C62.7649 4.25 63.7 5.185 63.7 6.375C63.7 7.565 62.7649 8.5 61.575 8.5ZM70.075 12.75C68.8849 12.75 67.95 11.815 67.95 10.625C67.95 9.435 68.8849 8.5 70.075 8.5C71.2649 8.5 72.2 9.435 72.2 10.625C72.2 11.815 71.2649 12.75 70.075 12.75ZM27.575 12.75C26.385 12.75 25.45 11.815 25.45 10.625C25.45 9.435 26.385 8.5 27.575 8.5C28.765 8.5 29.7 9.435 29.7 10.625C29.7 11.815 28.765 12.75 27.575 12.75ZM40.325 12.75C39.135 12.75 38.2 11.815 38.2 10.625C38.2 9.435 39.135 8.5 40.325 8.5C41.515 8.5 42.45 9.435 42.45 10.625C42.45 11.815 41.515 12.75 40.325 12.75ZM31.825 12.75C30.635 12.75 29.7 11.815 29.7 10.625C29.7 9.435 30.635 8.5 31.825 8.5C33.015 8.5 33.95 9.435 33.95 10.625C33.95 11.815 33.015 12.75 31.825 12.75ZM36.075 12.75C34.885 12.75 33.95 11.815 33.95 10.625C33.95 9.435 34.885 8.5 36.075 8.5C37.265 8.5 38.2 9.435 38.2 10.625C38.2 11.815 37.265 12.75 36.075 12.75ZM65.825 12.75C64.635 12.75 63.7 11.815 63.7 10.625C63.7 9.435 64.635 8.5 65.825 8.5C67.0149 8.5 67.95 9.435 67.95 10.625C67.95 11.815 67.0149 12.75 65.825 12.75ZM61.575 12.75C60.385 12.75 59.45 11.815 59.45 10.625C59.45 9.435 60.385 8.5 61.575 8.5C62.7649 8.5 63.7 9.435 63.7 10.625C63.7 11.815 62.7649 12.75 61.575 12.75ZM74.325 12.75C73.1349 12.75 72.2 11.815 72.2 10.625C72.2 9.435 73.1349 8.5 74.325 8.5C75.5149 8.5 76.45 9.435 76.45 10.625C76.45 11.815 75.5149 12.75 74.325 12.75ZM61.575 17C60.385 17 59.45 16.065 59.45 14.875C59.45 13.685 60.385 12.75 61.575 12.75C62.7649 12.75 63.7 13.685 63.7 14.875C63.7 16.065 62.7649 17 61.575 17ZM31.825 17C30.635 17 29.7 16.065 29.7 14.875C29.7 13.685 30.635 12.75 31.825 12.75C33.015 12.75 33.95 13.685 33.95 14.875C33.95 16.065 33.015 17 31.825 17ZM40.325 17C39.135 17 38.2 16.065 38.2 14.875C38.2 13.685 39.135 12.75 40.325 12.75C41.515 12.75 42.45 13.685 42.45 14.875C42.45 16.065 41.515 17 40.325 17ZM27.575 17C26.385 17 25.45 16.065 25.45 14.875C25.45 13.685 26.385 12.75 27.575 12.75C28.765 12.75 29.7 13.685 29.7 14.875C29.7 16.065 28.765 17 27.575 17ZM74.325 17C73.1349 17 72.2 16.065 72.2 14.875C72.2 13.685 73.1349 12.75 74.325 12.75C75.5149 12.75 76.45 13.685 76.45 14.875C76.45 16.065 75.5149 17 74.325 17ZM65.825 17C64.635 17 63.7 16.065 63.7 14.875C63.7 13.685 64.635 12.75 65.825 12.75C67.0149 12.75 67.95 13.685 67.95 14.875C67.95 16.065 67.0149 17 65.825 17ZM36.075 17C34.885 17 33.95 16.065 33.95 14.875C33.95 13.685 34.885 12.75 36.075 12.75C37.265 12.75 38.2 13.685 38.2 14.875C38.2 16.065 37.265 17 36.075 17ZM70.075 17C68.8849 17 67.95 16.065 67.95 14.875C67.95 13.685 68.8849 12.75 70.075 12.75C71.2649 12.75 72.2 13.685 72.2 14.875C72.2 16.065 71.2649 17 70.075 17ZM31.825 21.25C30.635 21.25 29.7 20.315 29.7 19.125C29.7 17.935 30.635 17 31.825 17C33.015 17 33.95 17.935 33.95 19.125C33.95 20.315 33.015 21.25 31.825 21.25ZM27.575 21.25C26.385 21.25 25.45 20.315 25.45 19.125C25.45 17.935 26.385 17 27.575 17C28.765 17 29.7 17.935 29.7 19.125C29.7 20.315 28.765 21.25 27.575 21.25ZM74.325 21.25C73.1349 21.25 72.2 20.315 72.2 19.125C72.2 17.935 73.1349 17 74.325 17C75.5149 17 76.45 17.935 76.45 19.125C76.45 20.315 75.5149 21.25 74.325 21.25ZM40.325 21.25C39.135 21.25 38.2 20.315 38.2 19.125C38.2 17.935 39.135 17 40.325 17C41.515 17 42.45 17.935 42.45 19.125C42.45 20.315 41.515 21.25 40.325 21.25ZM61.575 21.25C60.385 21.25 59.45 20.315 59.45 19.125C59.45 17.935 60.385 17 61.575 17C62.7649 17 63.7 17.935 63.7 19.125C63.7 20.315 62.7649 21.25 61.575 21.25ZM65.825 21.25C64.635 21.25 63.7 20.315 63.7 19.125C63.7 17.935 64.635 17 65.825 17C67.0149 17 67.95 17.935 67.95 19.125C67.95 20.315 67.0149 21.25 65.825 21.25ZM36.075 21.25C34.885 21.25 33.95 20.315 33.95 19.125C33.95 17.935 34.885 17 36.075 17C37.265 17 38.2 17.935 38.2 19.125C38.2 20.315 37.265 21.25 36.075 21.25ZM70.075 21.25C68.8849 21.25 67.95 20.315 67.95 19.125C67.95 17.935 68.8849 17 70.075 17C71.2649 17 72.2 17.935 72.2 19.125C72.2 20.315 71.2649 21.25 70.075 21.25ZM31.825 25.5C30.635 25.5 29.7 24.565 29.7 23.375C29.7 22.185 30.635 21.25 31.825 21.25C33.015 21.25 33.95 22.185 33.95 23.375C33.95 24.565 33.015 25.5 31.825 25.5ZM27.575 25.5C26.385 25.5 25.45 24.565 25.45 23.375C25.45 22.185 26.385 21.25 27.575 21.25C28.765 21.25 29.7 22.185 29.7 23.375C29.7 24.565 28.765 25.5 27.575 25.5ZM36.075 25.5C34.885 25.5 33.95 24.565 33.95 23.375C33.95 22.185 34.885 21.25 36.075 21.25C37.265 21.25 38.2 22.185 38.2 23.375C38.2 24.565 37.265 25.5 36.075 25.5ZM74.325 25.5C73.1349 25.5 72.2 24.565 72.2 23.375C72.2 22.185 73.1349 21.25 74.325 21.25C75.5149 21.25 76.45 22.185 76.45 23.375C76.45 24.565 75.5149 25.5 74.325 25.5ZM40.325 25.5C39.135 25.5 38.2 24.565 38.2 23.375C38.2 22.185 39.135 21.25 40.325 21.25C41.515 21.25 42.45 22.185 42.45 23.375C42.45 24.565 41.515 25.5 40.325 25.5ZM61.575 25.5C60.385 25.5 59.45 24.565 59.45 23.375C59.45 22.185 60.385 21.25 61.575 21.25C62.7649 21.25 63.7 22.185 63.7 23.375C63.7 24.565 62.7649 25.5 61.575 25.5ZM65.825 25.5C64.635 25.5 63.7 24.565 63.7 23.375C63.7 22.185 64.635 21.25 65.825 21.25C67.0149 21.25 67.95 22.185 67.95 23.375C67.95 24.565 67.0149 25.5 65.825 25.5ZM70.075 25.5C68.8849 25.5 67.95 24.565 67.95 23.375C67.95 22.185 68.8849 21.25 70.075 21.25C71.2649 21.25 72.2 22.185 72.2 23.375C72.2 24.565 71.2649 25.5 70.075 25.5ZM70.075 29.75C68.8849 29.75 67.95 28.815 67.95 27.625C67.95 26.435 68.8849 25.5 70.075 25.5C71.2649 25.5 72.2 26.435 72.2 27.625C72.2 28.815 71.2649 29.75 70.075 29.75ZM36.075 29.75C34.885 29.75 33.95 28.815 33.95 27.625C33.95 26.435 34.885 25.5 36.075 25.5C37.265 25.5 38.2 26.435 38.2 27.625C38.2 28.815 37.265 29.75 36.075 29.75ZM40.325 29.75C39.135 29.75 38.2 28.815 38.2 27.625C38.2 26.435 39.135 25.5 40.325 25.5C41.515 25.5 42.45 26.435 42.45 27.625C42.45 28.815 41.515 29.75 40.325 29.75ZM74.325 29.75C73.1349 29.75 72.2 28.815 72.2 27.625C72.2 26.435 73.1349 25.5 74.325 25.5C75.5149 25.5 76.45 26.435 76.45 27.625C76.45 28.815 75.5149 29.75 74.325 29.75ZM65.825 29.75C64.635 29.75 63.7 28.815 63.7 27.625C63.7 26.435 64.635 25.5 65.825 25.5C67.0149 25.5 67.95 26.435 67.95 27.625C67.95 28.815 67.0149 29.75 65.825 29.75ZM31.825 29.75C30.635 29.75 29.7 28.815 29.7 27.625C29.7 26.435 30.635 25.5 31.825 25.5C33.015 25.5 33.95 26.435 33.95 27.625C33.95 28.815 33.015 29.75 31.825 29.75ZM27.575 29.75C26.385 29.75 25.45 28.815 25.45 27.625C25.45 26.435 26.385 25.5 27.575 25.5C28.765 25.5 29.7 26.435 29.7 27.625C29.7 28.815 28.765 29.75 27.575 29.75ZM61.575 29.75C60.385 29.75 59.45 28.815 59.45 27.625C59.45 26.435 60.385 25.5 61.575 25.5C62.7649 25.5 63.7 26.435 63.7 27.625C63.7 28.815 62.7649 29.75 61.575 29.75ZM44.575 34C43.385 34 42.45 33.065 42.45 31.875C42.45 30.685 43.385 29.75 44.575 29.75C45.7649 29.75 46.7 30.685 46.7 31.875C46.7 33.065 45.7649 34 44.575 34ZM57.325 34C56.135 34 55.2 33.065 55.2 31.875C55.2 30.685 56.135 29.75 57.325 29.75C58.5149 29.75 59.45 30.685 59.45 31.875C59.45 33.065 58.5149 34 57.325 34ZM40.325 34C39.135 34 38.2 33.065 38.2 31.875C38.2 30.685 39.135 29.75 40.325 29.75C41.515 29.75 42.45 30.685 42.45 31.875C42.45 33.065 41.515 34 40.325 34ZM65.825 34C64.635 34 63.7 33.065 63.7 31.875C63.7 30.685 64.635 29.75 65.825 29.75C67.0149 29.75 67.95 30.685 67.95 31.875C67.95 33.065 67.0149 34 65.825 34ZM61.575 34C60.385 34 59.45 33.065 59.45 31.875C59.45 30.685 60.385 29.75 61.575 29.75C62.7649 29.75 63.7 30.685 63.7 31.875C63.7 33.065 62.7649 34 61.575 34ZM70.075 34C68.8849 34 67.95 33.065 67.95 31.875C67.95 30.685 68.8849 29.75 70.075 29.75C71.2649 29.75 72.2 30.685 72.2 31.875C72.2 33.065 71.2649 34 70.075 34ZM36.075 34C34.885 34 33.95 33.065 33.95 31.875C33.95 30.685 34.885 29.75 36.075 29.75C37.265 29.75 38.2 30.685 38.2 31.875C38.2 33.065 37.265 34 36.075 34ZM31.825 34C30.635 34 29.7 33.065 29.7 31.875C29.7 30.685 30.635 29.75 31.825 29.75C33.015 29.75 33.95 30.685 33.95 31.875C33.95 33.065 33.015 34 31.825 34ZM57.325 38.25C56.135 38.25 55.2 37.315 55.2 36.125C55.2 34.935 56.135 34 57.325 34C58.5149 34 59.45 34.935 59.45 36.125C59.45 37.315 58.5149 38.25 57.325 38.25ZM53.075 38.25C51.885 38.25 50.95 37.315 50.95 36.125C50.95 34.935 51.885 34 53.075 34C54.2649 34 55.2 34.935 55.2 36.125C55.2 37.315 54.2649 38.25 53.075 38.25ZM48.825 38.25C47.635 38.25 46.7 37.315 46.7 36.125C46.7 34.935 47.635 34 48.825 34C50.0149 34 50.95 34.935 50.95 36.125C50.95 37.315 50.0149 38.25 48.825 38.25ZM44.575 38.25C43.385 38.25 42.45 37.315 42.45 36.125C42.45 34.935 43.385 34 44.575 34C45.7649 34 46.7 34.935 46.7 36.125C46.7 37.315 45.7649 38.25 44.575 38.25ZM31.825 38.25C30.635 38.25 29.7 37.315 29.7 36.125C29.7 34.935 30.635 34 31.825 34C33.015 34 33.95 34.935 33.95 36.125C33.95 37.315 33.015 38.25 31.825 38.25ZM70.075 38.25C68.8849 38.25 67.95 37.315 67.95 36.125C67.95 34.935 68.8849 34 70.075 34C71.2649 34 72.2 34.935 72.2 36.125C72.2 37.315 71.2649 38.25 70.075 38.25ZM65.825 38.25C64.635 38.25 63.7 37.315 63.7 36.125C63.7 34.935 64.635 34 65.825 34C67.0149 34 67.95 34.935 67.95 36.125C67.95 37.315 67.0149 38.25 65.825 38.25ZM61.575 38.25C60.385 38.25 59.45 37.315 59.45 36.125C59.45 34.935 60.385 34 61.575 34C62.7649 34 63.7 34.935 63.7 36.125C63.7 37.315 62.7649 38.25 61.575 38.25ZM36.075 38.25C34.885 38.25 33.95 37.315 33.95 36.125C33.95 34.935 34.885 34 36.075 34C37.265 34 38.2 34.935 38.2 36.125C38.2 37.315 37.265 38.25 36.075 38.25ZM40.325 38.25C39.135 38.25 38.2 37.315 38.2 36.125C38.2 34.935 39.135 34 40.325 34C41.515 34 42.45 34.935 42.45 36.125C42.45 37.315 41.515 38.25 40.325 38.25ZM44.575 42.5C43.385 42.5 42.45 41.565 42.45 40.375C42.45 39.185 43.385 38.25 44.575 38.25C45.7649 38.25 46.7 39.185 46.7 40.375C46.7 41.565 45.7649 42.5 44.575 42.5ZM48.825 42.5C47.635 42.5 46.7 41.565 46.7 40.375C46.7 39.185 47.635 38.25 48.825 38.25C50.0149 38.25 50.95 39.185 50.95 40.375C50.95 41.565 50.0149 42.5 48.825 42.5ZM53.075 42.5C51.885 42.5 50.95 41.565 50.95 40.375C50.95 39.185 51.885 38.25 53.075 38.25C54.2649 38.25 55.2 39.185 55.2 40.375C55.2 41.565 54.2649 42.5 53.075 42.5ZM57.325 42.5C56.135 42.5 55.2 41.565 55.2 40.375C55.2 39.185 56.135 38.25 57.325 38.25C58.5149 38.25 59.45 39.185 59.45 40.375C59.45 41.565 58.5149 42.5 57.325 42.5ZM40.325 42.5C39.135 42.5 38.2 41.565 38.2 40.375C38.2 39.185 39.135 38.25 40.325 38.25C41.515 38.25 42.45 39.185 42.45 40.375C42.45 41.565 41.515 42.5 40.325 42.5ZM61.575 42.5C60.385 42.5 59.45 41.565 59.45 40.375C59.45 39.185 60.385 38.25 61.575 38.25C62.7649 38.25 63.7 39.185 63.7 40.375C63.7 41.565 62.7649 42.5 61.575 42.5Z" fill="#F76CAF"/>
<path d="M14.875 4.25C13.685 4.25 12.75 3.315 12.75 2.125C12.75 0.935001 13.685 0 14.875 0C16.065 0 17 0.935001 17 2.125C17 3.315 16.065 4.25 14.875 4.25ZM10.625 4.25C9.435 4.25 8.5 3.315 8.5 2.125C8.5 0.935001 9.435 0 10.625 0C11.815 0 12.75 0.935001 12.75 2.125C12.75 3.315 11.815 4.25 10.625 4.25ZM6.375 4.25C5.185 4.25 4.25 3.315 4.25 2.125C4.25 0.935001 5.185 0 6.375 0C7.565 0 8.5 0.935001 8.5 2.125C8.5 3.315 7.565 4.25 6.375 4.25ZM2.125 4.25C0.935 4.25 0 3.315 0 2.125C0 0.935001 0.935 0 2.125 0C3.315 0 4.25 0.935001 4.25 2.125C4.25 3.315 3.315 4.25 2.125 4.25ZM6.375 8.5C5.185 8.5 4.25 7.565 4.25 6.375C4.25 5.185 5.185 4.25 6.375 4.25C7.565 4.25 8.5 5.185 8.5 6.375C8.5 7.565 7.565 8.5 6.375 8.5ZM2.125 8.5C0.935 8.5 0 7.565 0 6.375C0 5.185 0.935 4.25 2.125 4.25C3.315 4.25 4.25 5.185 4.25 6.375C4.25 7.565 3.315 8.5 2.125 8.5ZM10.625 8.5C9.435 8.5 8.5 7.565 8.5 6.375C8.5 5.185 9.435 4.25 10.625 4.25C11.815 4.25 12.75 5.185 12.75 6.375C12.75 7.565 11.815 8.5 10.625 8.5ZM14.875 8.5C13.685 8.5 12.75 7.565 12.75 6.375C12.75 5.185 13.685 4.25 14.875 4.25C16.065 4.25 17 5.185 17 6.375C17 7.565 16.065 8.5 14.875 8.5ZM14.875 12.75C13.685 12.75 12.75 11.815 12.75 10.625C12.75 9.435 13.685 8.5 14.875 8.5C16.065 8.5 17 9.435 17 10.625C17 11.815 16.065 12.75 14.875 12.75ZM2.125 12.75C0.935 12.75 0 11.815 0 10.625C0 9.435 0.935 8.5 2.125 8.5C3.315 8.5 4.25 9.435 4.25 10.625C4.25 11.815 3.315 12.75 2.125 12.75ZM10.625 12.75C9.435 12.75 8.5 11.815 8.5 10.625C8.5 9.435 9.435 8.5 10.625 8.5C11.815 8.5 12.75 9.435 12.75 10.625C12.75 11.815 11.815 12.75 10.625 12.75ZM6.375 12.75C5.185 12.75 4.25 11.815 4.25 10.625C4.25 9.435 5.185 8.5 6.375 8.5C7.565 8.5 8.5 9.435 8.5 10.625C8.5 11.815 7.565 12.75 6.375 12.75ZM14.875 17C13.685 17 12.75 16.065 12.75 14.875C12.75 13.685 13.685 12.75 14.875 12.75C16.065 12.75 17 13.685 17 14.875C17 16.065 16.065 17 14.875 17ZM2.125 17C0.935 17 0 16.065 0 14.875C0 13.685 0.935 12.75 2.125 12.75C3.315 12.75 4.25 13.685 4.25 14.875C4.25 16.065 3.315 17 2.125 17ZM10.625 17C9.435 17 8.5 16.065 8.5 14.875C8.5 13.685 9.435 12.75 10.625 12.75C11.815 12.75 12.75 13.685 12.75 14.875C12.75 16.065 11.815 17 10.625 17ZM6.375 17C5.185 17 4.25 16.065 4.25 14.875C4.25 13.685 5.185 12.75 6.375 12.75C7.565 12.75 8.5 13.685 8.5 14.875C8.5 16.065 7.565 17 6.375 17ZM10.625 21.25C9.435 21.25 8.5 20.315 8.5 19.125C8.5 17.935 9.435 17 10.625 17C11.815 17 12.75 17.935 12.75 19.125C12.75 20.315 11.815 21.25 10.625 21.25ZM14.875 21.25C13.685 21.25 12.75 20.315 12.75 19.125C12.75 17.935 13.685 17 14.875 17C16.065 17 17 17.935 17 19.125C17 20.315 16.065 21.25 14.875 21.25ZM2.125 21.25C0.935 21.25 0 20.315 0 19.125C0 17.935 0.935 17 2.125 17C3.315 17 4.25 17.935 4.25 19.125C4.25 20.315 3.315 21.25 2.125 21.25ZM6.375 21.25C5.185 21.25 4.25 20.315 4.25 19.125C4.25 17.935 5.185 17 6.375 17C7.565 17 8.5 17.935 8.5 19.125C8.5 20.315 7.565 21.25 6.375 21.25ZM10.625 25.5C9.435 25.5 8.5 24.565 8.5 23.375C8.5 22.185 9.435 21.25 10.625 21.25C11.815 21.25 12.75 22.185 12.75 23.375C12.75 24.565 11.815 25.5 10.625 25.5ZM14.875 25.5C13.685 25.5 12.75 24.565 12.75 23.375C12.75 22.185 13.685 21.25 14.875 21.25C16.065 21.25 17 22.185 17 23.375C17 24.565 16.065 25.5 14.875 25.5ZM2.125 25.5C0.935 25.5 0 24.565 0 23.375C0 22.185 0.935 21.25 2.125 21.25C3.315 21.25 4.25 22.185 4.25 23.375C4.25 24.565 3.315 25.5 2.125 25.5ZM6.375 25.5C5.185 25.5 4.25 24.565 4.25 23.375C4.25 22.185 5.185 21.25 6.375 21.25C7.565 21.25 8.5 22.185 8.5 23.375C8.5 24.565 7.565 25.5 6.375 25.5ZM6.375 29.75C5.185 29.75 4.25 28.815 4.25 27.625C4.25 26.435 5.185 25.5 6.375 25.5C7.565 25.5 8.5 26.435 8.5 27.625C8.5 28.815 7.565 29.75 6.375 29.75ZM14.875 29.75C13.685 29.75 12.75 28.815 12.75 27.625C12.75 26.435 13.685 25.5 14.875 25.5C16.065 25.5 17 26.435 17 27.625C17 28.815 16.065 29.75 14.875 29.75ZM2.125 29.75C0.935 29.75 0 28.815 0 27.625C0 26.435 0.935 25.5 2.125 25.5C3.315 25.5 4.25 26.435 4.25 27.625C4.25 28.815 3.315 29.75 2.125 29.75ZM10.625 29.75C9.435 29.75 8.5 28.815 8.5 27.625C8.5 26.435 9.435 25.5 10.625 25.5C11.815 25.5 12.75 26.435 12.75 27.625C12.75 28.815 11.815 29.75 10.625 29.75ZM36.125 34C34.935 34 34 33.065 34 31.875C34 30.685 34.935 29.75 36.125 29.75C37.315 29.75 38.25 30.685 38.25 31.875C38.25 33.065 37.315 34 36.125 34ZM2.125 34C0.935 34 0 33.065 0 31.875C0 30.685 0.935 29.75 2.125 29.75C3.315 29.75 4.25 30.685 4.25 31.875C4.25 33.065 3.315 34 2.125 34ZM10.625 34C9.435 34 8.5 33.065 8.5 31.875C8.5 30.685 9.435 29.75 10.625 29.75C11.815 29.75 12.75 30.685 12.75 31.875C12.75 33.065 11.815 34 10.625 34ZM14.875 34C13.685 34 12.75 33.065 12.75 31.875C12.75 30.685 13.685 29.75 14.875 29.75C16.065 29.75 17 30.685 17 31.875C17 33.065 16.065 34 14.875 34ZM6.375 34C5.185 34 4.25 33.065 4.25 31.875C4.25 30.685 5.185 29.75 6.375 29.75C7.565 29.75 8.5 30.685 8.5 31.875C8.5 33.065 7.565 34 6.375 34ZM19.125 34C17.935 34 17 33.065 17 31.875C17 30.685 17.935 29.75 19.125 29.75C20.315 29.75 21.25 30.685 21.25 31.875C21.25 33.065 20.315 34 19.125 34ZM23.375 34C22.185 34 21.25 33.065 21.25 31.875C21.25 30.685 22.185 29.75 23.375 29.75C24.565 29.75 25.5 30.685 25.5 31.875C25.5 33.065 24.565 34 23.375 34ZM27.625 34C26.435 34 25.5 33.065 25.5 31.875C25.5 30.685 26.435 29.75 27.625 29.75C28.815 29.75 29.75 30.685 29.75 31.875C29.75 33.065 28.815 34 27.625 34ZM31.875 34C30.685 34 29.75 33.065 29.75 31.875C29.75 30.685 30.685 29.75 31.875 29.75C33.065 29.75 34 30.685 34 31.875C34 33.065 33.065 34 31.875 34ZM10.625 38.25C9.435 38.25 8.5 37.315 8.5 36.125C8.5 34.935 9.435 34 10.625 34C11.815 34 12.75 34.935 12.75 36.125C12.75 37.315 11.815 38.25 10.625 38.25ZM27.625 38.25C26.435 38.25 25.5 37.315 25.5 36.125C25.5 34.935 26.435 34 27.625 34C28.815 34 29.75 34.935 29.75 36.125C29.75 37.315 28.815 38.25 27.625 38.25ZM23.375 38.25C22.185 38.25 21.25 37.315 21.25 36.125C21.25 34.935 22.185 34 23.375 34C24.565 34 25.5 34.935 25.5 36.125C25.5 37.315 24.565 38.25 23.375 38.25ZM19.125 38.25C17.935 38.25 17 37.315 17 36.125C17 34.935 17.935 34 19.125 34C20.315 34 21.25 34.935 21.25 36.125C21.25 37.315 20.315 38.25 19.125 38.25ZM14.875 38.25C13.685 38.25 12.75 37.315 12.75 36.125C12.75 34.935 13.685 34 14.875 34C16.065 34 17 34.935 17 36.125C17 37.315 16.065 38.25 14.875 38.25ZM2.125 38.25C0.935 38.25 0 37.315 0 36.125C0 34.935 0.935 34 2.125 34C3.315 34 4.25 34.935 4.25 36.125C4.25 37.315 3.315 38.25 2.125 38.25ZM31.875 38.25C30.685 38.25 29.75 37.315 29.75 36.125C29.75 34.935 30.685 34 31.875 34C33.065 34 34 34.935 34 36.125C34 37.315 33.065 38.25 31.875 38.25ZM36.125 38.25C34.935 38.25 34 37.315 34 36.125C34 34.935 34.935 34 36.125 34C37.315 34 38.25 34.935 38.25 36.125C38.25 37.315 37.315 38.25 36.125 38.25ZM6.375 38.25C5.185 38.25 4.25 37.315 4.25 36.125C4.25 34.935 5.185 34 6.375 34C7.565 34 8.5 34.935 8.5 36.125C8.5 37.315 7.565 38.25 6.375 38.25ZM10.625 42.5C9.435 42.5 8.5 41.565 8.5 40.375C8.5 39.185 9.435 38.25 10.625 38.25C11.815 38.25 12.75 39.185 12.75 40.375C12.75 41.565 11.815 42.5 10.625 42.5ZM19.125 42.5C17.935 42.5 17 41.565 17 40.375C17 39.185 17.935 38.25 19.125 38.25C20.315 38.25 21.25 39.185 21.25 40.375C21.25 41.565 20.315 42.5 19.125 42.5ZM23.375 42.5C22.185 42.5 21.25 41.565 21.25 40.375C21.25 39.185 22.185 38.25 23.375 38.25C24.565 38.25 25.5 39.185 25.5 40.375C25.5 41.565 24.565 42.5 23.375 42.5ZM27.625 42.5C26.435 42.5 25.5 41.565 25.5 40.375C25.5 39.185 26.435 38.25 27.625 38.25C28.815 38.25 29.75 39.185 29.75 40.375C29.75 41.565 28.815 42.5 27.625 42.5ZM2.125 42.5C0.935 42.5 0 41.565 0 40.375C0 39.185 0.935 38.25 2.125 38.25C3.315 38.25 4.25 39.185 4.25 40.375C4.25 41.565 3.315 42.5 2.125 42.5ZM31.875 42.5C30.685 42.5 29.75 41.565 29.75 40.375C29.75 39.185 30.685 38.25 31.875 38.25C33.065 38.25 34 39.185 34 40.375C34 41.565 33.065 42.5 31.875 42.5ZM6.375 42.5C5.185 42.5 4.25 41.565 4.25 40.375C4.25 39.185 5.185 38.25 6.375 38.25C7.565 38.25 8.5 39.185 8.5 40.375C8.5 41.565 7.565 42.5 6.375 42.5ZM36.125 42.5C34.935 42.5 34 41.565 34 40.375C34 39.185 34.935 38.25 36.125 38.25C37.315 38.25 38.25 39.185 38.25 40.375C38.25 41.565 37.315 42.5 36.125 42.5ZM14.875 42.5C13.685 42.5 12.75 41.565 12.75 40.375C12.75 39.185 13.685 38.25 14.875 38.25C16.065 38.25 17 39.185 17 40.375C17 41.565 16.065 42.5 14.875 42.5Z" fill="#825FFF"/>
</svg>
